<mxfile host="Electron" modified="2025-01-28T21:12:24.293Z" agent="Mozilla/5.0 (Windows NT 10.0; Win64; x64) AppleWebKit/537.36 (KHTML, like Gecko) draw.io/24.6.4 Chrome/124.0.6367.207 Electron/30.0.6 Safari/537.36" etag="ekRWZ1CL8-8oCv-zoHfG" version="24.6.4" type="device">
  <diagram id="C5RBs43oDa-KdzZeNtuy" name="Page-1">
    <mxGraphModel dx="4521" dy="2869" grid="1" gridSize="10" guides="1" tooltips="1" connect="1" arrows="1" fold="1" page="1" pageScale="1" pageWidth="827" pageHeight="1169" math="0" shadow="0">
      <root>
        <mxCell id="WIyWlLk6GJQsqaUBKTNV-0" />
        <mxCell id="WIyWlLk6GJQsqaUBKTNV-1" parent="WIyWlLk6GJQsqaUBKTNV-0" />
        <mxCell id="RPxi0eU1zX9Ktvan48h7-0" value="&lt;font style=&quot;font-size: 24px;&quot;&gt;SystemControlerInterface&lt;/font&gt;" style="swimlane;fontStyle=1;align=center;verticalAlign=top;childLayout=stackLayout;horizontal=1;startSize=40;horizontalStack=0;resizeParent=1;resizeParentMax=0;resizeLast=0;collapsible=1;marginBottom=0;whiteSpace=wrap;html=1;fillColor=#C7FFCD;" parent="WIyWlLk6GJQsqaUBKTNV-1" vertex="1">
          <mxGeometry x="-220" y="-50" width="360" height="214" as="geometry">
            <mxRectangle x="-240" y="340" width="100" height="30" as="alternateBounds" />
          </mxGeometry>
        </mxCell>
        <mxCell id="RPxi0eU1zX9Ktvan48h7-1" value="&lt;div&gt;input_manager: InputManager&lt;/div&gt;&lt;div&gt;view_manager: ViewManager&lt;/div&gt;&lt;div&gt;export_manager: ExportManager&lt;/div&gt;&lt;div&gt;network_manager: NetworkManager&lt;/div&gt;&lt;div&gt;logger: Logger&lt;/div&gt;" style="text;strokeColor=none;fillColor=#C7FFCD;align=left;verticalAlign=top;spacingLeft=4;spacingRight=4;overflow=hidden;rotatable=0;points=[[0,0.5],[1,0.5]];portConstraint=eastwest;whiteSpace=wrap;html=1;" parent="RPxi0eU1zX9Ktvan48h7-0" vertex="1">
          <mxGeometry y="40" width="360" height="84" as="geometry" />
        </mxCell>
        <mxCell id="RPxi0eU1zX9Ktvan48h7-2" value="" style="line;strokeWidth=1;fillColor=#C7FFCD;align=left;verticalAlign=middle;spacingTop=-1;spacingLeft=3;spacingRight=3;rotatable=0;labelPosition=right;points=[];portConstraint=eastwest;strokeColor=inherit;" parent="RPxi0eU1zX9Ktvan48h7-0" vertex="1">
          <mxGeometry y="124" width="360" height="18" as="geometry" />
        </mxCell>
        <mxCell id="RPxi0eU1zX9Ktvan48h7-3" value="&lt;div&gt;input_network(input_data)&lt;/div&gt;&lt;div&gt;&lt;div&gt;modify_network(modification_request)&lt;/div&gt;&lt;/div&gt;&lt;div&gt;export_data(export_request)&lt;span style=&quot;background-color: initial;&quot;&gt;&lt;br&gt;submit_view_request(&lt;/span&gt;view_request&lt;span style=&quot;background-color: initial;&quot;&gt;)&amp;nbsp;&lt;/span&gt;&lt;span style=&quot;background-color: initial;&quot;&gt;&lt;br&gt;&lt;/span&gt;&lt;/div&gt;" style="text;strokeColor=none;fillColor=#C7FFCD;align=left;verticalAlign=top;spacingLeft=4;spacingRight=4;overflow=hidden;rotatable=0;points=[[0,0.5],[1,0.5]];portConstraint=eastwest;whiteSpace=wrap;html=1;" parent="RPxi0eU1zX9Ktvan48h7-0" vertex="1">
          <mxGeometry y="142" width="360" height="72" as="geometry" />
        </mxCell>
        <mxCell id="RPxi0eU1zX9Ktvan48h7-4" value="&lt;span style=&quot;font-size: 24px;&quot;&gt;InputManager&lt;/span&gt;" style="swimlane;fontStyle=1;align=center;verticalAlign=top;childLayout=stackLayout;horizontal=1;startSize=40;horizontalStack=0;resizeParent=1;resizeParentMax=0;resizeLast=0;collapsible=1;marginBottom=0;whiteSpace=wrap;html=1;fillColor=#C7FFCD;" parent="WIyWlLk6GJQsqaUBKTNV-1" vertex="1">
          <mxGeometry x="220" y="-50" width="360" height="120" as="geometry">
            <mxRectangle x="-240" y="340" width="100" height="30" as="alternateBounds" />
          </mxGeometry>
        </mxCell>
        <mxCell id="RPxi0eU1zX9Ktvan48h7-5" value="&lt;div&gt;&lt;span style=&quot;background-color: initial;&quot;&gt;data_interpreter: DataInterpreter&lt;/span&gt;&lt;br&gt;&lt;/div&gt;" style="text;strokeColor=none;fillColor=#C7FFCD;align=left;verticalAlign=top;spacingLeft=4;spacingRight=4;overflow=hidden;rotatable=0;points=[[0,0.5],[1,0.5]];portConstraint=eastwest;whiteSpace=wrap;html=1;" parent="RPxi0eU1zX9Ktvan48h7-4" vertex="1">
          <mxGeometry y="40" width="360" height="30" as="geometry" />
        </mxCell>
        <mxCell id="RPxi0eU1zX9Ktvan48h7-6" value="" style="line;strokeWidth=1;fillColor=#C7FFCD;align=left;verticalAlign=middle;spacingTop=-1;spacingLeft=3;spacingRight=3;rotatable=0;labelPosition=right;points=[];portConstraint=eastwest;strokeColor=inherit;" parent="RPxi0eU1zX9Ktvan48h7-4" vertex="1">
          <mxGeometry y="70" width="360" height="18" as="geometry" />
        </mxCell>
        <mxCell id="RPxi0eU1zX9Ktvan48h7-7" value="&lt;div&gt;get_network(input_data)&lt;/div&gt;&lt;div&gt;&lt;br&gt;&lt;/div&gt;" style="text;strokeColor=none;fillColor=#C7FFCD;align=left;verticalAlign=top;spacingLeft=4;spacingRight=4;overflow=hidden;rotatable=0;points=[[0,0.5],[1,0.5]];portConstraint=eastwest;whiteSpace=wrap;html=1;" parent="RPxi0eU1zX9Ktvan48h7-4" vertex="1">
          <mxGeometry y="88" width="360" height="32" as="geometry" />
        </mxCell>
        <mxCell id="RPxi0eU1zX9Ktvan48h7-8" value="&lt;font style=&quot;font-size: 24px;&quot;&gt;ExportManager&lt;/font&gt;" style="swimlane;fontStyle=1;align=center;verticalAlign=top;childLayout=stackLayout;horizontal=1;startSize=40;horizontalStack=0;resizeParent=1;resizeParentMax=0;resizeLast=0;collapsible=1;marginBottom=0;whiteSpace=wrap;html=1;fillColor=#C7FFCD;" parent="WIyWlLk6GJQsqaUBKTNV-1" vertex="1">
          <mxGeometry x="220" y="270.00000000000006" width="360" height="130" as="geometry">
            <mxRectangle x="-240" y="340" width="100" height="30" as="alternateBounds" />
          </mxGeometry>
        </mxCell>
        <mxCell id="RPxi0eU1zX9Ktvan48h7-9" value="export_request_interpreter: ExportRequestInterpreter" style="text;strokeColor=none;fillColor=#C7FFCD;align=left;verticalAlign=top;spacingLeft=4;spacingRight=4;overflow=hidden;rotatable=0;points=[[0,0.5],[1,0.5]];portConstraint=eastwest;whiteSpace=wrap;html=1;" parent="RPxi0eU1zX9Ktvan48h7-8" vertex="1">
          <mxGeometry y="40" width="360" height="40" as="geometry" />
        </mxCell>
        <mxCell id="RPxi0eU1zX9Ktvan48h7-10" value="" style="line;strokeWidth=1;fillColor=#C7FFCD;align=left;verticalAlign=middle;spacingTop=-1;spacingLeft=3;spacingRight=3;rotatable=0;labelPosition=right;points=[];portConstraint=eastwest;strokeColor=inherit;" parent="RPxi0eU1zX9Ktvan48h7-8" vertex="1">
          <mxGeometry y="80" width="360" height="18" as="geometry" />
        </mxCell>
        <mxCell id="RPxi0eU1zX9Ktvan48h7-11" value="handle_export_request(export_request)" style="text;strokeColor=none;fillColor=#C7FFCD;align=left;verticalAlign=top;spacingLeft=4;spacingRight=4;overflow=hidden;rotatable=0;points=[[0,0.5],[1,0.5]];portConstraint=eastwest;whiteSpace=wrap;html=1;" parent="RPxi0eU1zX9Ktvan48h7-8" vertex="1">
          <mxGeometry y="98" width="360" height="32" as="geometry" />
        </mxCell>
        <mxCell id="RPxi0eU1zX9Ktvan48h7-12" value="&lt;font style=&quot;font-size: 24px;&quot;&gt;&lt;div style=&quot;font-size: 12px;&quot;&gt;&lt;span style=&quot;font-size: 24px; background-color: initial;&quot;&gt;ViewManager&lt;/span&gt;&lt;br&gt;&lt;/div&gt;&lt;/font&gt;" style="swimlane;fontStyle=1;align=center;verticalAlign=top;childLayout=stackLayout;horizontal=1;startSize=40;horizontalStack=0;resizeParent=1;resizeParentMax=0;resizeLast=0;collapsible=1;marginBottom=0;whiteSpace=wrap;html=1;fillColor=#C7FFCD;" parent="WIyWlLk6GJQsqaUBKTNV-1" vertex="1">
          <mxGeometry x="-220" y="270.00000000000006" width="360" height="150" as="geometry">
            <mxRectangle x="-240" y="340" width="100" height="30" as="alternateBounds" />
          </mxGeometry>
        </mxCell>
        <mxCell id="RPxi0eU1zX9Ktvan48h7-13" value="view_request_interpreter: ViewRequestInterpreter&lt;div&gt;view_strategy: ViewStrategy&lt;/div&gt;" style="text;strokeColor=none;fillColor=#C7FFCD;align=left;verticalAlign=top;spacingLeft=4;spacingRight=4;overflow=hidden;rotatable=0;points=[[0,0.5],[1,0.5]];portConstraint=eastwest;whiteSpace=wrap;html=1;" parent="RPxi0eU1zX9Ktvan48h7-12" vertex="1">
          <mxGeometry y="40" width="360" height="40" as="geometry" />
        </mxCell>
        <mxCell id="RPxi0eU1zX9Ktvan48h7-14" value="" style="line;strokeWidth=1;fillColor=#C7FFCD;align=left;verticalAlign=middle;spacingTop=-1;spacingLeft=3;spacingRight=3;rotatable=0;labelPosition=right;points=[];portConstraint=eastwest;strokeColor=inherit;" parent="RPxi0eU1zX9Ktvan48h7-12" vertex="1">
          <mxGeometry y="80" width="360" height="18" as="geometry" />
        </mxCell>
        <mxCell id="RPxi0eU1zX9Ktvan48h7-15" value="&lt;div&gt;handle_view_request(view_request)&lt;/div&gt;&lt;div&gt;&lt;br&gt;&lt;/div&gt;" style="text;strokeColor=none;fillColor=#C7FFCD;align=left;verticalAlign=top;spacingLeft=4;spacingRight=4;overflow=hidden;rotatable=0;points=[[0,0.5],[1,0.5]];portConstraint=eastwest;whiteSpace=wrap;html=1;" parent="RPxi0eU1zX9Ktvan48h7-12" vertex="1">
          <mxGeometry y="98" width="360" height="52" as="geometry" />
        </mxCell>
        <mxCell id="RPxi0eU1zX9Ktvan48h7-16" value="&lt;font style=&quot;font-size: 24px;&quot;&gt;Logger&lt;/font&gt;" style="swimlane;fontStyle=1;align=center;verticalAlign=top;childLayout=stackLayout;horizontal=1;startSize=40;horizontalStack=0;resizeParent=1;resizeParentMax=0;resizeLast=0;collapsible=1;marginBottom=0;whiteSpace=wrap;html=1;fillColor=#C7FFCD;" parent="WIyWlLk6GJQsqaUBKTNV-1" vertex="1">
          <mxGeometry x="-620" y="-50" width="360" height="170" as="geometry">
            <mxRectangle x="-240" y="340" width="100" height="30" as="alternateBounds" />
          </mxGeometry>
        </mxCell>
        <mxCell id="RPxi0eU1zX9Ktvan48h7-17" value="log_storage_strategy: LogStorageStrategy&amp;nbsp;&lt;div&gt;log_history&lt;/div&gt;" style="text;strokeColor=none;fillColor=#C7FFCD;align=left;verticalAlign=top;spacingLeft=4;spacingRight=4;overflow=hidden;rotatable=0;points=[[0,0.5],[1,0.5]];portConstraint=eastwest;whiteSpace=wrap;html=1;" parent="RPxi0eU1zX9Ktvan48h7-16" vertex="1">
          <mxGeometry y="40" width="360" height="50" as="geometry" />
        </mxCell>
        <mxCell id="RPxi0eU1zX9Ktvan48h7-18" value="" style="line;strokeWidth=1;fillColor=#C7FFCD;align=left;verticalAlign=middle;spacingTop=-1;spacingLeft=3;spacingRight=3;rotatable=0;labelPosition=right;points=[];portConstraint=eastwest;strokeColor=inherit;" parent="RPxi0eU1zX9Ktvan48h7-16" vertex="1">
          <mxGeometry y="90" width="360" height="18" as="geometry" />
        </mxCell>
        <mxCell id="RPxi0eU1zX9Ktvan48h7-19" value="log(message, priority)&lt;div&gt;flush_logs()&lt;/div&gt;&lt;div&gt;set_log_storage_strategy(LogStorageStrategy)&lt;/div&gt;" style="text;strokeColor=none;fillColor=#C7FFCD;align=left;verticalAlign=top;spacingLeft=4;spacingRight=4;overflow=hidden;rotatable=0;points=[[0,0.5],[1,0.5]];portConstraint=eastwest;whiteSpace=wrap;html=1;" parent="RPxi0eU1zX9Ktvan48h7-16" vertex="1">
          <mxGeometry y="108" width="360" height="62" as="geometry" />
        </mxCell>
        <mxCell id="RPxi0eU1zX9Ktvan48h7-24" value="&lt;font style=&quot;font-size: 24px;&quot;&gt;NetworkManager&lt;/font&gt;" style="swimlane;fontStyle=1;align=center;verticalAlign=top;childLayout=stackLayout;horizontal=1;startSize=40;horizontalStack=0;resizeParent=1;resizeParentMax=0;resizeLast=0;collapsible=1;marginBottom=0;whiteSpace=wrap;html=1;fillColor=#C7FFCD;" parent="WIyWlLk6GJQsqaUBKTNV-1" vertex="1">
          <mxGeometry x="-220" y="-310" width="360" height="214" as="geometry">
            <mxRectangle x="-240" y="340" width="100" height="30" as="alternateBounds" />
          </mxGeometry>
        </mxCell>
        <mxCell id="RPxi0eU1zX9Ktvan48h7-25" value="network: Network&lt;br&gt;degradation_engine_strategy: DegradationEngineStrategy&lt;br&gt;state_manager: StateManager" style="text;strokeColor=none;fillColor=#C7FFCD;align=left;verticalAlign=top;spacingLeft=4;spacingRight=4;overflow=hidden;rotatable=0;points=[[0,0.5],[1,0.5]];portConstraint=eastwest;whiteSpace=wrap;html=1;" parent="RPxi0eU1zX9Ktvan48h7-24" vertex="1">
          <mxGeometry y="40" width="360" height="64" as="geometry" />
        </mxCell>
        <mxCell id="RPxi0eU1zX9Ktvan48h7-26" value="" style="line;strokeWidth=1;fillColor=#C7FFCD;align=left;verticalAlign=middle;spacingTop=-1;spacingLeft=3;spacingRight=3;rotatable=0;labelPosition=right;points=[];portConstraint=eastwest;strokeColor=inherit;" parent="RPxi0eU1zX9Ktvan48h7-24" vertex="1">
          <mxGeometry y="104" width="360" height="18" as="geometry" />
        </mxCell>
        <mxCell id="RPxi0eU1zX9Ktvan48h7-27" value="&lt;div&gt;handle_modification_request(modification_request)&lt;/div&gt;&lt;div&gt;degrade_edge(edge)&lt;/div&gt;&lt;div&gt;degrade_node(node)&lt;/div&gt;&lt;div&gt;undo_degradation()&lt;/div&gt;&lt;div&gt;modify_network_properties(network_properties)&lt;/div&gt;&lt;div&gt;&lt;br&gt;&lt;/div&gt;" style="text;strokeColor=none;fillColor=#C7FFCD;align=left;verticalAlign=top;spacingLeft=4;spacingRight=4;overflow=hidden;rotatable=0;points=[[0,0.5],[1,0.5]];portConstraint=eastwest;whiteSpace=wrap;html=1;" parent="RPxi0eU1zX9Ktvan48h7-24" vertex="1">
          <mxGeometry y="122" width="360" height="92" as="geometry" />
        </mxCell>
        <mxCell id="RPxi0eU1zX9Ktvan48h7-28" value="&lt;font style=&quot;font-size: 24px;&quot;&gt;Network&lt;/font&gt;" style="swimlane;fontStyle=1;align=center;verticalAlign=top;childLayout=stackLayout;horizontal=1;startSize=50;horizontalStack=0;resizeParent=1;resizeParentMax=0;resizeLast=0;collapsible=1;marginBottom=0;whiteSpace=wrap;html=1;fillColor=#C7FFCD;" parent="WIyWlLk6GJQsqaUBKTNV-1" vertex="1">
          <mxGeometry x="-220" y="-653" width="360" height="274" as="geometry">
            <mxRectangle x="-240" y="340" width="100" height="30" as="alternateBounds" />
          </mxGeometry>
        </mxCell>
        <mxCell id="RPxi0eU1zX9Ktvan48h7-29" value="&lt;span style=&quot;background-color: initial;&quot;&gt;properties: NetworkProperties&lt;/span&gt;" style="text;strokeColor=none;fillColor=#C7FFCD;align=left;verticalAlign=top;spacingLeft=4;spacingRight=4;overflow=hidden;rotatable=0;points=[[0,0.5],[1,0.5]];portConstraint=eastwest;whiteSpace=wrap;html=1;" parent="RPxi0eU1zX9Ktvan48h7-28" vertex="1">
          <mxGeometry y="50" width="360" height="34" as="geometry" />
        </mxCell>
        <mxCell id="RPxi0eU1zX9Ktvan48h7-30" value="" style="line;strokeWidth=1;fillColor=#C7FFCD;align=left;verticalAlign=middle;spacingTop=-1;spacingLeft=3;spacingRight=3;rotatable=0;labelPosition=right;points=[];portConstraint=eastwest;strokeColor=inherit;" parent="RPxi0eU1zX9Ktvan48h7-28" vertex="1">
          <mxGeometry y="84" width="360" height="18" as="geometry" />
        </mxCell>
        <mxCell id="RPxi0eU1zX9Ktvan48h7-31" value="&lt;div&gt;add_node(node)&lt;/div&gt;&lt;div&gt;remove_node(node)&lt;/div&gt;&lt;div&gt;get_nodes()&lt;br&gt;add_edge(node_a, node_b,)&lt;br&gt;&lt;/div&gt;&lt;div&gt;remove_edge(node_a, node_b)&lt;br&gt;&lt;/div&gt;&lt;div&gt;get_edges()&lt;/div&gt;&lt;div&gt;&lt;div&gt;update_property(key, value)&lt;/div&gt;&lt;div&gt;get_property(key)&lt;/div&gt;&lt;div&gt;remove_property(key)&lt;/div&gt;&lt;/div&gt;&lt;div&gt;get_neighbors(node)&lt;/div&gt;&lt;div&gt;find_shortest_path(start_node, end_node)&lt;/div&gt;&lt;div&gt;&lt;br&gt;&lt;/div&gt;&lt;div&gt;&lt;br&gt;&lt;/div&gt;&lt;div&gt;&lt;br&gt;&lt;/div&gt;" style="text;strokeColor=none;fillColor=#C7FFCD;align=left;verticalAlign=top;spacingLeft=4;spacingRight=4;overflow=hidden;rotatable=0;points=[[0,0.5],[1,0.5]];portConstraint=eastwest;whiteSpace=wrap;html=1;" parent="RPxi0eU1zX9Ktvan48h7-28" vertex="1">
          <mxGeometry y="102" width="360" height="172" as="geometry" />
        </mxCell>
        <mxCell id="RPxi0eU1zX9Ktvan48h7-32" value="&lt;font style=&quot;font-size: 24px;&quot;&gt;StateManager&lt;/font&gt;" style="swimlane;fontStyle=1;align=center;verticalAlign=top;childLayout=stackLayout;horizontal=1;startSize=40;horizontalStack=0;resizeParent=1;resizeParentMax=0;resizeLast=0;collapsible=1;marginBottom=0;whiteSpace=wrap;html=1;fillColor=#C7FFCD;" parent="WIyWlLk6GJQsqaUBKTNV-1" vertex="1">
          <mxGeometry x="-620" y="-310" width="360" height="134" as="geometry">
            <mxRectangle x="-240" y="340" width="100" height="30" as="alternateBounds" />
          </mxGeometry>
        </mxCell>
        <mxCell id="RPxi0eU1zX9Ktvan48h7-33" value="&lt;div&gt;state_history: Network[*]&lt;/div&gt;" style="text;strokeColor=none;fillColor=#C7FFCD;align=left;verticalAlign=top;spacingLeft=4;spacingRight=4;overflow=hidden;rotatable=0;points=[[0,0.5],[1,0.5]];portConstraint=eastwest;whiteSpace=wrap;html=1;" parent="RPxi0eU1zX9Ktvan48h7-32" vertex="1">
          <mxGeometry y="40" width="360" height="34" as="geometry" />
        </mxCell>
        <mxCell id="RPxi0eU1zX9Ktvan48h7-34" value="" style="line;strokeWidth=1;fillColor=#C7FFCD;align=left;verticalAlign=middle;spacingTop=-1;spacingLeft=3;spacingRight=3;rotatable=0;labelPosition=right;points=[];portConstraint=eastwest;strokeColor=inherit;" parent="RPxi0eU1zX9Ktvan48h7-32" vertex="1">
          <mxGeometry y="74" width="360" height="18" as="geometry" />
        </mxCell>
        <mxCell id="RPxi0eU1zX9Ktvan48h7-35" value="add_new_state(state)&lt;div&gt;undo_last_state()&lt;/div&gt;" style="text;strokeColor=none;fillColor=#C7FFCD;align=left;verticalAlign=top;spacingLeft=4;spacingRight=4;overflow=hidden;rotatable=0;points=[[0,0.5],[1,0.5]];portConstraint=eastwest;whiteSpace=wrap;html=1;" parent="RPxi0eU1zX9Ktvan48h7-32" vertex="1">
          <mxGeometry y="92" width="360" height="42" as="geometry" />
        </mxCell>
        <mxCell id="RPxi0eU1zX9Ktvan48h7-36" value="&lt;span style=&quot;font-size: 24px;&quot;&gt;&amp;lt;&amp;lt;interface&amp;gt;&amp;gt;&lt;/span&gt;&lt;br style=&quot;font-size: 24px;&quot;&gt;&lt;span style=&quot;font-size: 24px;&quot;&gt;DegradationEngineStrategy&lt;/span&gt;" style="swimlane;fontStyle=1;align=center;verticalAlign=top;childLayout=stackLayout;horizontal=1;startSize=80;horizontalStack=0;resizeParent=1;resizeParentMax=0;resizeLast=0;collapsible=1;marginBottom=0;whiteSpace=wrap;html=1;fillColor=#C7FFCD;" parent="WIyWlLk6GJQsqaUBKTNV-1" vertex="1">
          <mxGeometry x="210" y="-344" width="360" height="154" as="geometry">
            <mxRectangle x="160" y="140" width="100" height="30" as="alternateBounds" />
          </mxGeometry>
        </mxCell>
        <mxCell id="RPxi0eU1zX9Ktvan48h7-37" value="" style="text;strokeColor=none;fillColor=#C7FFCD;align=left;verticalAlign=top;spacingLeft=4;spacingRight=4;overflow=hidden;rotatable=0;points=[[0,0.5],[1,0.5]];portConstraint=eastwest;whiteSpace=wrap;html=1;" parent="RPxi0eU1zX9Ktvan48h7-36" vertex="1">
          <mxGeometry y="80" width="360" height="24" as="geometry" />
        </mxCell>
        <mxCell id="RPxi0eU1zX9Ktvan48h7-38" value="" style="line;strokeWidth=1;fillColor=#C7FFCD;align=left;verticalAlign=middle;spacingTop=-1;spacingLeft=3;spacingRight=3;rotatable=0;labelPosition=right;points=[];portConstraint=eastwest;strokeColor=inherit;" parent="RPxi0eU1zX9Ktvan48h7-36" vertex="1">
          <mxGeometry y="104" width="360" height="18" as="geometry" />
        </mxCell>
        <mxCell id="RPxi0eU1zX9Ktvan48h7-39" value="&lt;div&gt;degrade_network(action)&lt;/div&gt;" style="text;strokeColor=none;fillColor=#C7FFCD;align=left;verticalAlign=top;spacingLeft=4;spacingRight=4;overflow=hidden;rotatable=0;points=[[0,0.5],[1,0.5]];portConstraint=eastwest;whiteSpace=wrap;html=1;" parent="RPxi0eU1zX9Ktvan48h7-36" vertex="1">
          <mxGeometry y="122" width="360" height="32" as="geometry" />
        </mxCell>
        <mxCell id="RPxi0eU1zX9Ktvan48h7-40" value="&lt;font style=&quot;font-size: 24px;&quot;&gt;Node&lt;/font&gt;" style="swimlane;fontStyle=1;align=center;verticalAlign=top;childLayout=stackLayout;horizontal=1;startSize=40;horizontalStack=0;resizeParent=1;resizeParentMax=0;resizeLast=0;collapsible=1;marginBottom=0;whiteSpace=wrap;html=1;fillColor=#C7FFCD;" parent="WIyWlLk6GJQsqaUBKTNV-1" vertex="1">
          <mxGeometry x="-620" y="-850" width="360" height="164" as="geometry">
            <mxRectangle x="-240" y="340" width="100" height="30" as="alternateBounds" />
          </mxGeometry>
        </mxCell>
        <mxCell id="RPxi0eU1zX9Ktvan48h7-41" value="&lt;div&gt;properties: NodeProperties&lt;br&gt;&lt;/div&gt;" style="text;strokeColor=none;fillColor=#C7FFCD;align=left;verticalAlign=top;spacingLeft=4;spacingRight=4;overflow=hidden;rotatable=0;points=[[0,0.5],[1,0.5]];portConstraint=eastwest;whiteSpace=wrap;html=1;" parent="RPxi0eU1zX9Ktvan48h7-40" vertex="1">
          <mxGeometry y="40" width="360" height="34" as="geometry" />
        </mxCell>
        <mxCell id="RPxi0eU1zX9Ktvan48h7-42" value="" style="line;strokeWidth=1;fillColor=#C7FFCD;align=left;verticalAlign=middle;spacingTop=-1;spacingLeft=3;spacingRight=3;rotatable=0;labelPosition=right;points=[];portConstraint=eastwest;strokeColor=inherit;" parent="RPxi0eU1zX9Ktvan48h7-40" vertex="1">
          <mxGeometry y="74" width="360" height="18" as="geometry" />
        </mxCell>
        <mxCell id="RPxi0eU1zX9Ktvan48h7-43" value="&lt;div&gt;update_property(key, value)&lt;/div&gt;&lt;div&gt;get_property(key)&lt;/div&gt;&lt;div&gt;remove_property(key)&lt;/div&gt;" style="text;strokeColor=none;fillColor=#C7FFCD;align=left;verticalAlign=top;spacingLeft=4;spacingRight=4;overflow=hidden;rotatable=0;points=[[0,0.5],[1,0.5]];portConstraint=eastwest;whiteSpace=wrap;html=1;" parent="RPxi0eU1zX9Ktvan48h7-40" vertex="1">
          <mxGeometry y="92" width="360" height="72" as="geometry" />
        </mxCell>
        <mxCell id="RPxi0eU1zX9Ktvan48h7-44" value="&lt;font style=&quot;font-size: 24px;&quot;&gt;Edge&lt;/font&gt;" style="swimlane;fontStyle=1;align=center;verticalAlign=top;childLayout=stackLayout;horizontal=1;startSize=40;horizontalStack=0;resizeParent=1;resizeParentMax=0;resizeLast=0;collapsible=1;marginBottom=0;whiteSpace=wrap;html=1;fillColor=#C7FFCD;" parent="WIyWlLk6GJQsqaUBKTNV-1" vertex="1">
          <mxGeometry x="180" y="-840" width="360" height="144" as="geometry">
            <mxRectangle x="-240" y="340" width="100" height="30" as="alternateBounds" />
          </mxGeometry>
        </mxCell>
        <mxCell id="RPxi0eU1zX9Ktvan48h7-45" value="&lt;div&gt;&lt;font style=&quot;font-size: 12px;&quot;&gt;properties: EdgeProperties&lt;/font&gt;&lt;/div&gt;" style="text;strokeColor=none;fillColor=#C7FFCD;align=left;verticalAlign=top;spacingLeft=4;spacingRight=4;overflow=hidden;rotatable=0;points=[[0,0.5],[1,0.5]];portConstraint=eastwest;whiteSpace=wrap;html=1;" parent="RPxi0eU1zX9Ktvan48h7-44" vertex="1">
          <mxGeometry y="40" width="360" height="34" as="geometry" />
        </mxCell>
        <mxCell id="RPxi0eU1zX9Ktvan48h7-46" value="" style="line;strokeWidth=1;fillColor=#C7FFCD;align=left;verticalAlign=middle;spacingTop=-1;spacingLeft=3;spacingRight=3;rotatable=0;labelPosition=right;points=[];portConstraint=eastwest;strokeColor=inherit;" parent="RPxi0eU1zX9Ktvan48h7-44" vertex="1">
          <mxGeometry y="74" width="360" height="18" as="geometry" />
        </mxCell>
        <mxCell id="RPxi0eU1zX9Ktvan48h7-47" value="&lt;div&gt;update_property(key, value)&lt;/div&gt;&lt;div&gt;get_property(key)&lt;/div&gt;&lt;div&gt;remove_property(key)&lt;/div&gt;" style="text;strokeColor=none;fillColor=#C7FFCD;align=left;verticalAlign=top;spacingLeft=4;spacingRight=4;overflow=hidden;rotatable=0;points=[[0,0.5],[1,0.5]];portConstraint=eastwest;whiteSpace=wrap;html=1;" parent="RPxi0eU1zX9Ktvan48h7-44" vertex="1">
          <mxGeometry y="92" width="360" height="52" as="geometry" />
        </mxCell>
        <mxCell id="RPxi0eU1zX9Ktvan48h7-48" value="" style="endArrow=diamondThin;endFill=0;endSize=24;html=1;rounded=0;entryX=0.5;entryY=1.006;entryDx=0;entryDy=0;entryPerimeter=0;exitX=0.5;exitY=0;exitDx=0;exitDy=0;fillColor=#FFFDBF;" parent="WIyWlLk6GJQsqaUBKTNV-1" source="RPxi0eU1zX9Ktvan48h7-12" target="RPxi0eU1zX9Ktvan48h7-3" edge="1">
          <mxGeometry width="160" relative="1" as="geometry">
            <mxPoint x="-890" y="-113" as="sourcePoint" />
            <mxPoint x="-50" y="177" as="targetPoint" />
          </mxGeometry>
        </mxCell>
        <mxCell id="RPxi0eU1zX9Ktvan48h7-50" value="" style="endArrow=diamondThin;endFill=0;endSize=24;html=1;rounded=0;entryX=1;entryY=0.5;entryDx=0;entryDy=0;exitX=0;exitY=0.75;exitDx=0;exitDy=0;" parent="WIyWlLk6GJQsqaUBKTNV-1" source="RPxi0eU1zX9Ktvan48h7-4" target="RPxi0eU1zX9Ktvan48h7-1" edge="1">
          <mxGeometry width="160" relative="1" as="geometry">
            <mxPoint x="-30" y="207" as="sourcePoint" />
            <mxPoint x="-29" y="170" as="targetPoint" />
          </mxGeometry>
        </mxCell>
        <mxCell id="RPxi0eU1zX9Ktvan48h7-51" value="" style="endArrow=diamondThin;endFill=0;endSize=24;html=1;rounded=0;entryX=1;entryY=0.5;entryDx=0;entryDy=0;exitX=0;exitY=0;exitDx=0;exitDy=0;fillColor=#FFFDBF;" parent="WIyWlLk6GJQsqaUBKTNV-1" source="RPxi0eU1zX9Ktvan48h7-8" target="RPxi0eU1zX9Ktvan48h7-3" edge="1">
          <mxGeometry width="160" relative="1" as="geometry">
            <mxPoint x="-20" y="217.00000000000006" as="sourcePoint" />
            <mxPoint x="-19" y="180" as="targetPoint" />
          </mxGeometry>
        </mxCell>
        <mxCell id="RPxi0eU1zX9Ktvan48h7-53" value="" style="endArrow=none;html=1;edgeStyle=orthogonalEdgeStyle;rounded=0;entryX=0.5;entryY=1.007;entryDx=0;entryDy=0;entryPerimeter=0;exitX=0.5;exitY=0;exitDx=0;exitDy=0;" parent="WIyWlLk6GJQsqaUBKTNV-1" source="RPxi0eU1zX9Ktvan48h7-0" target="RPxi0eU1zX9Ktvan48h7-27" edge="1">
          <mxGeometry relative="1" as="geometry">
            <mxPoint x="100" y="-170" as="sourcePoint" />
            <mxPoint x="100" y="-450" as="targetPoint" />
          </mxGeometry>
        </mxCell>
        <mxCell id="RPxi0eU1zX9Ktvan48h7-54" value="" style="endArrow=open;endSize=12;dashed=1;html=1;rounded=0;entryX=1;entryY=0.5;entryDx=0;entryDy=0;fillColor=#FFFDBF;" parent="WIyWlLk6GJQsqaUBKTNV-1" target="RPxi0eU1zX9Ktvan48h7-17" edge="1">
          <mxGeometry width="160" relative="1" as="geometry">
            <mxPoint x="-220" y="15" as="sourcePoint" />
            <mxPoint x="-60" y="-210" as="targetPoint" />
          </mxGeometry>
        </mxCell>
        <mxCell id="RPxi0eU1zX9Ktvan48h7-56" value="" style="endArrow=diamondThin;endFill=0;endSize=24;html=1;rounded=0;entryX=0;entryY=0.5;entryDx=0;entryDy=0;exitX=1;exitY=0.5;exitDx=0;exitDy=0;fillColor=#C7FFCD;" parent="WIyWlLk6GJQsqaUBKTNV-1" source="RPxi0eU1zX9Ktvan48h7-33" target="RPxi0eU1zX9Ktvan48h7-25" edge="1">
          <mxGeometry width="160" relative="1" as="geometry">
            <mxPoint x="-250" y="248.00000000000006" as="sourcePoint" />
            <mxPoint x="-210" y="248.00000000000006" as="targetPoint" />
          </mxGeometry>
        </mxCell>
        <mxCell id="RPxi0eU1zX9Ktvan48h7-57" value="" style="endArrow=diamondThin;endFill=0;endSize=24;html=1;rounded=0;entryX=0;entryY=0.5;entryDx=0;entryDy=0;exitX=1;exitY=0.5;exitDx=0;exitDy=0;fillColor=#C7FFCD;" parent="WIyWlLk6GJQsqaUBKTNV-1" source="RPxi0eU1zX9Ktvan48h7-40" target="RPxi0eU1zX9Ktvan48h7-149" edge="1">
          <mxGeometry width="160" relative="1" as="geometry">
            <mxPoint x="-240" y="258.00000000000006" as="sourcePoint" />
            <mxPoint x="-200" y="258.00000000000006" as="targetPoint" />
          </mxGeometry>
        </mxCell>
        <mxCell id="RPxi0eU1zX9Ktvan48h7-58" value="" style="endArrow=diamondThin;endFill=0;endSize=24;html=1;rounded=0;entryX=1;entryY=0.5;entryDx=0;entryDy=0;exitX=0;exitY=0.5;exitDx=0;exitDy=0;fillColor=#C7FFCD;" parent="WIyWlLk6GJQsqaUBKTNV-1" source="RPxi0eU1zX9Ktvan48h7-44" target="RPxi0eU1zX9Ktvan48h7-149" edge="1">
          <mxGeometry width="160" relative="1" as="geometry">
            <mxPoint x="-230" y="268.00000000000006" as="sourcePoint" />
            <mxPoint x="-190" y="268.00000000000006" as="targetPoint" />
          </mxGeometry>
        </mxCell>
        <mxCell id="RPxi0eU1zX9Ktvan48h7-59" value="" style="endArrow=diamondThin;endFill=0;endSize=24;html=1;rounded=0;entryX=1;entryY=0.5;entryDx=0;entryDy=0;exitX=0;exitY=0.5;exitDx=0;exitDy=0;fillColor=#FFFDBF;" parent="WIyWlLk6GJQsqaUBKTNV-1" source="RPxi0eU1zX9Ktvan48h7-37" target="RPxi0eU1zX9Ktvan48h7-25" edge="1">
          <mxGeometry width="160" relative="1" as="geometry">
            <mxPoint x="-220" y="278.00000000000006" as="sourcePoint" />
            <mxPoint x="-180" y="278.00000000000006" as="targetPoint" />
          </mxGeometry>
        </mxCell>
        <mxCell id="RPxi0eU1zX9Ktvan48h7-60" value="" style="endArrow=diamondThin;endFill=0;endSize=24;html=1;rounded=0;entryX=0.5;entryY=0;entryDx=0;entryDy=0;exitX=0.503;exitY=1;exitDx=0;exitDy=0;exitPerimeter=0;fillColor=#FFFDBF;" parent="WIyWlLk6GJQsqaUBKTNV-1" source="RPxi0eU1zX9Ktvan48h7-31" target="RPxi0eU1zX9Ktvan48h7-24" edge="1">
          <mxGeometry width="160" relative="1" as="geometry">
            <mxPoint x="-210" y="288.00000000000006" as="sourcePoint" />
            <mxPoint x="-170" y="288.00000000000006" as="targetPoint" />
          </mxGeometry>
        </mxCell>
        <mxCell id="RPxi0eU1zX9Ktvan48h7-69" value="&lt;div style=&quot;&quot;&gt;&lt;span style=&quot;background-color: initial;&quot;&gt;&lt;font style=&quot;font-size: 24px;&quot;&gt;&amp;lt;&amp;lt;interface&amp;gt;&amp;gt;&lt;/font&gt;&lt;/span&gt;&lt;/div&gt;&lt;div style=&quot;&quot;&gt;&lt;span style=&quot;background-color: initial;&quot;&gt;&lt;font style=&quot;font-size: 24px;&quot;&gt;DataProcessingStrategy&lt;/font&gt;&lt;/span&gt;&lt;/div&gt;" style="swimlane;fontStyle=1;align=center;verticalAlign=top;childLayout=stackLayout;horizontal=1;startSize=70;horizontalStack=0;resizeParent=1;resizeParentMax=0;resizeLast=0;collapsible=1;marginBottom=0;whiteSpace=wrap;html=1;fillColor=#C7FFCD;" parent="WIyWlLk6GJQsqaUBKTNV-1" vertex="1">
          <mxGeometry x="620" y="-50" width="360" height="130" as="geometry">
            <mxRectangle x="-240" y="340" width="100" height="30" as="alternateBounds" />
          </mxGeometry>
        </mxCell>
        <mxCell id="RPxi0eU1zX9Ktvan48h7-71" value="" style="line;strokeWidth=1;fillColor=#C7FFCD;align=left;verticalAlign=middle;spacingTop=-1;spacingLeft=3;spacingRight=3;rotatable=0;labelPosition=right;points=[];portConstraint=eastwest;strokeColor=inherit;" parent="RPxi0eU1zX9Ktvan48h7-69" vertex="1">
          <mxGeometry y="70" width="360" height="18" as="geometry" />
        </mxCell>
        <mxCell id="RPxi0eU1zX9Ktvan48h7-72" value="&lt;div&gt;validate(input_data)&lt;/div&gt;&lt;div&gt;parse(input_data)&lt;/div&gt;&lt;div&gt;&lt;br&gt;&lt;/div&gt;" style="text;strokeColor=none;fillColor=#C7FFCD;align=left;verticalAlign=top;spacingLeft=4;spacingRight=4;overflow=hidden;rotatable=0;points=[[0,0.5],[1,0.5]];portConstraint=eastwest;whiteSpace=wrap;html=1;" parent="RPxi0eU1zX9Ktvan48h7-69" vertex="1">
          <mxGeometry y="88" width="360" height="42" as="geometry" />
        </mxCell>
        <mxCell id="RPxi0eU1zX9Ktvan48h7-81" value="&lt;div style=&quot;&quot;&gt;&lt;span style=&quot;font-size: 24px;&quot;&gt;DataInterpreter&lt;/span&gt;&lt;/div&gt;" style="swimlane;fontStyle=1;align=center;verticalAlign=top;childLayout=stackLayout;horizontal=1;startSize=40;horizontalStack=0;resizeParent=1;resizeParentMax=0;resizeLast=0;collapsible=1;marginBottom=0;whiteSpace=wrap;html=1;fillColor=#C7FFCD;" parent="WIyWlLk6GJQsqaUBKTNV-1" vertex="1">
          <mxGeometry x="220" y="110" width="360" height="90" as="geometry">
            <mxRectangle x="-240" y="340" width="100" height="30" as="alternateBounds" />
          </mxGeometry>
        </mxCell>
        <mxCell id="RPxi0eU1zX9Ktvan48h7-82" value="" style="line;strokeWidth=1;fillColor=#C7FFCD;align=left;verticalAlign=middle;spacingTop=-1;spacingLeft=3;spacingRight=3;rotatable=0;labelPosition=right;points=[];portConstraint=eastwest;strokeColor=inherit;" parent="RPxi0eU1zX9Ktvan48h7-81" vertex="1">
          <mxGeometry y="40" width="360" height="18" as="geometry" />
        </mxCell>
        <mxCell id="RPxi0eU1zX9Ktvan48h7-83" value="&lt;div&gt;get_data_processing_strategy(input_data)&lt;/div&gt;" style="text;strokeColor=none;fillColor=#C7FFCD;align=left;verticalAlign=top;spacingLeft=4;spacingRight=4;overflow=hidden;rotatable=0;points=[[0,0.5],[1,0.5]];portConstraint=eastwest;whiteSpace=wrap;html=1;" parent="RPxi0eU1zX9Ktvan48h7-81" vertex="1">
          <mxGeometry y="58" width="360" height="32" as="geometry" />
        </mxCell>
        <mxCell id="RPxi0eU1zX9Ktvan48h7-87" value="" style="endArrow=none;html=1;edgeStyle=orthogonalEdgeStyle;rounded=0;entryX=0.471;entryY=0.976;entryDx=0;entryDy=0;entryPerimeter=0;exitX=0.473;exitY=0.001;exitDx=0;exitDy=0;exitPerimeter=0;fillColor=#C7FFCD;" parent="WIyWlLk6GJQsqaUBKTNV-1" source="RPxi0eU1zX9Ktvan48h7-81" target="RPxi0eU1zX9Ktvan48h7-7" edge="1">
          <mxGeometry relative="1" as="geometry">
            <mxPoint x="-449.99999999999994" y="118" as="sourcePoint" />
            <mxPoint x="-449.99999999999994" y="88" as="targetPoint" />
          </mxGeometry>
        </mxCell>
        <mxCell id="RPxi0eU1zX9Ktvan48h7-88" value="&lt;div style=&quot;&quot;&gt;&lt;span style=&quot;font-size: 24px;&quot;&gt;ExcelData&lt;/span&gt;&lt;/div&gt;" style="swimlane;fontStyle=1;align=center;verticalAlign=top;childLayout=stackLayout;horizontal=1;startSize=40;horizontalStack=0;resizeParent=1;resizeParentMax=0;resizeLast=0;collapsible=1;marginBottom=0;whiteSpace=wrap;html=1;fillColor=#C7FFCD;" parent="WIyWlLk6GJQsqaUBKTNV-1" vertex="1" collapsed="1">
          <mxGeometry x="620" y="110" width="180" height="40" as="geometry">
            <mxRectangle x="600" y="560" width="360" height="102" as="alternateBounds" />
          </mxGeometry>
        </mxCell>
        <mxCell id="RPxi0eU1zX9Ktvan48h7-89" value="" style="line;strokeWidth=1;fillColor=#C7FFCD;align=left;verticalAlign=middle;spacingTop=-1;spacingLeft=3;spacingRight=3;rotatable=0;labelPosition=right;points=[];portConstraint=eastwest;strokeColor=inherit;" parent="RPxi0eU1zX9Ktvan48h7-88" vertex="1">
          <mxGeometry y="40" width="360" height="20" as="geometry" />
        </mxCell>
        <mxCell id="RPxi0eU1zX9Ktvan48h7-90" value="&lt;div&gt;&lt;br&gt;&lt;/div&gt;" style="text;strokeColor=none;fillColor=#C7FFCD;align=left;verticalAlign=top;spacingLeft=4;spacingRight=4;overflow=hidden;rotatable=0;points=[[0,0.5],[1,0.5]];portConstraint=eastwest;whiteSpace=wrap;html=1;" parent="RPxi0eU1zX9Ktvan48h7-88" vertex="1">
          <mxGeometry y="60" width="360" height="42" as="geometry" />
        </mxCell>
        <mxCell id="RPxi0eU1zX9Ktvan48h7-91" value="" style="endArrow=block;endSize=16;endFill=0;html=1;rounded=0;exitX=0.5;exitY=0;exitDx=0;exitDy=0;entryX=0.503;entryY=1.034;entryDx=0;entryDy=0;entryPerimeter=0;fillColor=#C7FFCD;" parent="WIyWlLk6GJQsqaUBKTNV-1" source="RPxi0eU1zX9Ktvan48h7-88" target="RPxi0eU1zX9Ktvan48h7-72" edge="1">
          <mxGeometry width="160" relative="1" as="geometry">
            <mxPoint x="-860" y="-112" as="sourcePoint" />
            <mxPoint x="-700" y="-112" as="targetPoint" />
          </mxGeometry>
        </mxCell>
        <mxCell id="RPxi0eU1zX9Ktvan48h7-96" value="&lt;div style=&quot;&quot;&gt;&lt;span style=&quot;background-color: initial;&quot;&gt;&lt;font style=&quot;font-size: 24px;&quot;&gt;&amp;lt;&amp;lt;interface&amp;gt;&amp;gt;&lt;/font&gt;&lt;/span&gt;&lt;/div&gt;&lt;div style=&quot;&quot;&gt;&lt;span style=&quot;background-color: initial;&quot;&gt;&lt;font style=&quot;font-size: 24px;&quot;&gt;ExportStrategy&lt;/font&gt;&lt;/span&gt;&lt;/div&gt;" style="swimlane;fontStyle=1;align=center;verticalAlign=top;childLayout=stackLayout;horizontal=1;startSize=70;horizontalStack=0;resizeParent=1;resizeParentMax=0;resizeLast=0;collapsible=1;marginBottom=0;whiteSpace=wrap;html=1;fillColor=#C7FFCD;" parent="WIyWlLk6GJQsqaUBKTNV-1" vertex="1">
          <mxGeometry x="620" y="270.00000000000006" width="360" height="120" as="geometry">
            <mxRectangle x="-240" y="340" width="100" height="30" as="alternateBounds" />
          </mxGeometry>
        </mxCell>
        <mxCell id="RPxi0eU1zX9Ktvan48h7-97" value="" style="line;strokeWidth=1;fillColor=#C7FFCD;align=left;verticalAlign=middle;spacingTop=-1;spacingLeft=3;spacingRight=3;rotatable=0;labelPosition=right;points=[];portConstraint=eastwest;strokeColor=inherit;" parent="RPxi0eU1zX9Ktvan48h7-96" vertex="1">
          <mxGeometry y="70" width="360" height="18" as="geometry" />
        </mxCell>
        <mxCell id="RPxi0eU1zX9Ktvan48h7-98" value="&lt;div&gt;generate_export(export_request)&lt;/div&gt;" style="text;strokeColor=none;fillColor=#C7FFCD;align=left;verticalAlign=top;spacingLeft=4;spacingRight=4;overflow=hidden;rotatable=0;points=[[0,0.5],[1,0.5]];portConstraint=eastwest;whiteSpace=wrap;html=1;" parent="RPxi0eU1zX9Ktvan48h7-96" vertex="1">
          <mxGeometry y="88" width="360" height="32" as="geometry" />
        </mxCell>
        <mxCell id="RPxi0eU1zX9Ktvan48h7-99" value="&lt;div style=&quot;&quot;&gt;&lt;span style=&quot;font-size: 24px;&quot;&gt;ExportRequestInterpreter&lt;/span&gt;&lt;br&gt;&lt;/div&gt;" style="swimlane;fontStyle=1;align=center;verticalAlign=top;childLayout=stackLayout;horizontal=1;startSize=40;horizontalStack=0;resizeParent=1;resizeParentMax=0;resizeLast=0;collapsible=1;marginBottom=0;whiteSpace=wrap;html=1;fillColor=#C7FFCD;" parent="WIyWlLk6GJQsqaUBKTNV-1" vertex="1">
          <mxGeometry x="220" y="454.77000000000004" width="360" height="90" as="geometry">
            <mxRectangle x="-240" y="340" width="100" height="30" as="alternateBounds" />
          </mxGeometry>
        </mxCell>
        <mxCell id="RPxi0eU1zX9Ktvan48h7-100" value="" style="line;strokeWidth=1;fillColor=#C7FFCD;align=left;verticalAlign=middle;spacingTop=-1;spacingLeft=3;spacingRight=3;rotatable=0;labelPosition=right;points=[];portConstraint=eastwest;strokeColor=inherit;" parent="RPxi0eU1zX9Ktvan48h7-99" vertex="1">
          <mxGeometry y="40" width="360" height="18" as="geometry" />
        </mxCell>
        <mxCell id="RPxi0eU1zX9Ktvan48h7-101" value="&lt;div&gt;get_generate_export_strategy(export_request)&lt;/div&gt;" style="text;strokeColor=none;fillColor=#C7FFCD;align=left;verticalAlign=top;spacingLeft=4;spacingRight=4;overflow=hidden;rotatable=0;points=[[0,0.5],[1,0.5]];portConstraint=eastwest;whiteSpace=wrap;html=1;" parent="RPxi0eU1zX9Ktvan48h7-99" vertex="1">
          <mxGeometry y="58" width="360" height="32" as="geometry" />
        </mxCell>
        <mxCell id="RPxi0eU1zX9Ktvan48h7-103" value="" style="endArrow=none;html=1;edgeStyle=orthogonalEdgeStyle;rounded=0;entryX=0.5;entryY=1;entryDx=0;entryDy=0;exitX=0.5;exitY=0;exitDx=0;exitDy=0;fillColor=#C7FFCD;" parent="WIyWlLk6GJQsqaUBKTNV-1" source="RPxi0eU1zX9Ktvan48h7-99" target="RPxi0eU1zX9Ktvan48h7-8" edge="1">
          <mxGeometry relative="1" as="geometry">
            <mxPoint x="390" y="439.77000000000004" as="sourcePoint" />
            <mxPoint x="389.55999999999995" y="399.002" as="targetPoint" />
          </mxGeometry>
        </mxCell>
        <mxCell id="RPxi0eU1zX9Ktvan48h7-104" value="&lt;div style=&quot;&quot;&gt;&lt;span style=&quot;font-size: 24px;&quot;&gt;CreateReport&lt;/span&gt;&lt;/div&gt;" style="swimlane;fontStyle=1;align=center;verticalAlign=top;childLayout=stackLayout;horizontal=1;startSize=40;horizontalStack=0;resizeParent=1;resizeParentMax=0;resizeLast=0;collapsible=1;marginBottom=0;whiteSpace=wrap;html=1;fillColor=#C7FFCD;" parent="WIyWlLk6GJQsqaUBKTNV-1" vertex="1" collapsed="1">
          <mxGeometry x="620" y="440.00000000000006" width="190" height="40" as="geometry">
            <mxRectangle x="600" y="890" width="360" height="90" as="alternateBounds" />
          </mxGeometry>
        </mxCell>
        <mxCell id="RPxi0eU1zX9Ktvan48h7-105" value="" style="line;strokeWidth=1;fillColor=#C7FFCD;align=left;verticalAlign=middle;spacingTop=-1;spacingLeft=3;spacingRight=3;rotatable=0;labelPosition=right;points=[];portConstraint=eastwest;strokeColor=inherit;" parent="RPxi0eU1zX9Ktvan48h7-104" vertex="1">
          <mxGeometry y="40" width="360" height="18" as="geometry" />
        </mxCell>
        <mxCell id="RPxi0eU1zX9Ktvan48h7-106" value="" style="text;strokeColor=none;fillColor=#C7FFCD;align=left;verticalAlign=top;spacingLeft=4;spacingRight=4;overflow=hidden;rotatable=0;points=[[0,0.5],[1,0.5]];portConstraint=eastwest;whiteSpace=wrap;html=1;" parent="RPxi0eU1zX9Ktvan48h7-104" vertex="1">
          <mxGeometry y="58" width="360" height="32" as="geometry" />
        </mxCell>
        <mxCell id="RPxi0eU1zX9Ktvan48h7-107" value="" style="endArrow=block;endSize=16;endFill=0;html=1;rounded=0;exitX=0.5;exitY=0;exitDx=0;exitDy=0;entryX=0.503;entryY=1.034;entryDx=0;entryDy=0;entryPerimeter=0;fillColor=#C7FFCD;" parent="WIyWlLk6GJQsqaUBKTNV-1" source="RPxi0eU1zX9Ktvan48h7-104" target="RPxi0eU1zX9Ktvan48h7-98" edge="1">
          <mxGeometry width="160" relative="1" as="geometry">
            <mxPoint x="780" y="200" as="sourcePoint" />
            <mxPoint x="940" y="200" as="targetPoint" />
          </mxGeometry>
        </mxCell>
        <mxCell id="RPxi0eU1zX9Ktvan48h7-108" value="" style="endArrow=none;html=1;edgeStyle=orthogonalEdgeStyle;rounded=0;exitX=1;exitY=0.5;exitDx=0;exitDy=0;entryX=0;entryY=0.537;entryDx=0;entryDy=0;fillColor=#C7FFCD;entryPerimeter=0;" parent="WIyWlLk6GJQsqaUBKTNV-1" source="RPxi0eU1zX9Ktvan48h7-8" target="RPxi0eU1zX9Ktvan48h7-96" edge="1">
          <mxGeometry relative="1" as="geometry">
            <mxPoint x="580" y="344.00000000000006" as="sourcePoint" />
            <mxPoint x="620" y="342.00000000000006" as="targetPoint" />
            <Array as="points">
              <mxPoint x="610" y="335.00000000000006" />
            </Array>
          </mxGeometry>
        </mxCell>
        <mxCell id="RPxi0eU1zX9Ktvan48h7-116" value="&lt;font style=&quot;font-size: 24px;&quot;&gt;TkinterView&lt;/font&gt;" style="swimlane;fontStyle=1;align=center;verticalAlign=top;childLayout=stackLayout;horizontal=1;startSize=40;horizontalStack=0;resizeParent=1;resizeParentMax=0;resizeLast=0;collapsible=1;marginBottom=0;whiteSpace=wrap;html=1;fillColor=#C7FFCD;" parent="WIyWlLk6GJQsqaUBKTNV-1" vertex="1" collapsed="1">
          <mxGeometry x="-540" y="520" width="160" height="35" as="geometry">
            <mxRectangle x="-240" y="955" width="360" height="126" as="alternateBounds" />
          </mxGeometry>
        </mxCell>
        <mxCell id="RPxi0eU1zX9Ktvan48h7-117" value="" style="text;strokeColor=none;fillColor=#C7FFCD;align=left;verticalAlign=top;spacingLeft=4;spacingRight=4;overflow=hidden;rotatable=0;points=[[0,0.5],[1,0.5]];portConstraint=eastwest;whiteSpace=wrap;html=1;" parent="RPxi0eU1zX9Ktvan48h7-116" vertex="1">
          <mxGeometry y="40" width="360" height="30" as="geometry" />
        </mxCell>
        <mxCell id="RPxi0eU1zX9Ktvan48h7-118" value="" style="line;strokeWidth=1;fillColor=#C7FFCD;align=left;verticalAlign=middle;spacingTop=-1;spacingLeft=3;spacingRight=3;rotatable=0;labelPosition=right;points=[];portConstraint=eastwest;strokeColor=inherit;" parent="RPxi0eU1zX9Ktvan48h7-116" vertex="1">
          <mxGeometry y="70" width="360" height="18" as="geometry" />
        </mxCell>
        <mxCell id="RPxi0eU1zX9Ktvan48h7-119" value="&lt;div&gt;&lt;br&gt;&lt;/div&gt;" style="text;strokeColor=none;fillColor=#C7FFCD;align=left;verticalAlign=top;spacingLeft=4;spacingRight=4;overflow=hidden;rotatable=0;points=[[0,0.5],[1,0.5]];portConstraint=eastwest;whiteSpace=wrap;html=1;" parent="RPxi0eU1zX9Ktvan48h7-116" vertex="1">
          <mxGeometry y="88" width="360" height="38" as="geometry" />
        </mxCell>
        <mxCell id="RPxi0eU1zX9Ktvan48h7-120" value="" style="endArrow=block;endSize=16;endFill=0;html=1;rounded=0;exitX=0.5;exitY=0;exitDx=0;exitDy=0;fillColor=#C7FFCD;entryX=0.456;entryY=1.023;entryDx=0;entryDy=0;entryPerimeter=0;" parent="WIyWlLk6GJQsqaUBKTNV-1" source="RPxi0eU1zX9Ktvan48h7-116" target="RPxi0eU1zX9Ktvan48h7-147" edge="1">
          <mxGeometry width="160" relative="1" as="geometry">
            <mxPoint x="-830" y="185" as="sourcePoint" />
            <mxPoint x="-479.99999999999994" y="470.00000000000006" as="targetPoint" />
          </mxGeometry>
        </mxCell>
        <mxCell id="RPxi0eU1zX9Ktvan48h7-121" value="&lt;font style=&quot;font-size: 24px;&quot;&gt;&amp;lt;&amp;lt;interface&amp;gt;&amp;gt;&lt;br&gt;LogStorageStrategy&lt;/font&gt;" style="swimlane;fontStyle=1;align=center;verticalAlign=top;childLayout=stackLayout;horizontal=1;startSize=70;horizontalStack=0;resizeParent=1;resizeParentMax=0;resizeLast=0;collapsible=1;marginBottom=0;whiteSpace=wrap;html=1;fillColor=#C7FFCD;" parent="WIyWlLk6GJQsqaUBKTNV-1" vertex="1">
          <mxGeometry x="-1020" y="-50" width="360" height="150" as="geometry">
            <mxRectangle x="-1040" y="400" width="100" height="30" as="alternateBounds" />
          </mxGeometry>
        </mxCell>
        <mxCell id="RPxi0eU1zX9Ktvan48h7-122" value="" style="text;strokeColor=none;fillColor=#C7FFCD;align=left;verticalAlign=top;spacingLeft=4;spacingRight=4;overflow=hidden;rotatable=0;points=[[0,0.5],[1,0.5]];portConstraint=eastwest;whiteSpace=wrap;html=1;" parent="RPxi0eU1zX9Ktvan48h7-121" vertex="1">
          <mxGeometry y="70" width="360" height="20" as="geometry" />
        </mxCell>
        <mxCell id="RPxi0eU1zX9Ktvan48h7-123" value="" style="line;strokeWidth=1;fillColor=#C7FFCD;align=left;verticalAlign=middle;spacingTop=-1;spacingLeft=3;spacingRight=3;rotatable=0;labelPosition=right;points=[];portConstraint=eastwest;strokeColor=inherit;" parent="RPxi0eU1zX9Ktvan48h7-121" vertex="1">
          <mxGeometry y="90" width="360" height="18" as="geometry" />
        </mxCell>
        <mxCell id="RPxi0eU1zX9Ktvan48h7-124" value="store_log(message, priority, timestamp)&lt;div&gt;flush_logs()&lt;/div&gt;" style="text;strokeColor=none;fillColor=#C7FFCD;align=left;verticalAlign=top;spacingLeft=4;spacingRight=4;overflow=hidden;rotatable=0;points=[[0,0.5],[1,0.5]];portConstraint=eastwest;whiteSpace=wrap;html=1;" parent="RPxi0eU1zX9Ktvan48h7-121" vertex="1">
          <mxGeometry y="108" width="360" height="42" as="geometry" />
        </mxCell>
        <mxCell id="RPxi0eU1zX9Ktvan48h7-125" value="&lt;span style=&quot;font-size: 24px;&quot;&gt;LocalFile&lt;/span&gt;" style="swimlane;fontStyle=1;align=center;verticalAlign=top;childLayout=stackLayout;horizontal=1;startSize=40;horizontalStack=0;resizeParent=1;resizeParentMax=0;resizeLast=0;collapsible=1;marginBottom=0;whiteSpace=wrap;html=1;fillColor=#C7FFCD;" parent="WIyWlLk6GJQsqaUBKTNV-1" vertex="1" collapsed="1">
          <mxGeometry x="-1020" y="150" width="140" height="40" as="geometry">
            <mxRectangle x="-1040" y="600" width="360" height="90" as="alternateBounds" />
          </mxGeometry>
        </mxCell>
        <mxCell id="RPxi0eU1zX9Ktvan48h7-126" value="&lt;div&gt;&lt;br&gt;&lt;/div&gt;" style="text;strokeColor=none;fillColor=#C7FFCD;align=left;verticalAlign=top;spacingLeft=4;spacingRight=4;overflow=hidden;rotatable=0;points=[[0,0.5],[1,0.5]];portConstraint=eastwest;whiteSpace=wrap;html=1;" parent="RPxi0eU1zX9Ktvan48h7-125" vertex="1">
          <mxGeometry y="40" width="360" height="20" as="geometry" />
        </mxCell>
        <mxCell id="RPxi0eU1zX9Ktvan48h7-127" value="" style="line;strokeWidth=1;fillColor=#C7FFCD;align=left;verticalAlign=middle;spacingTop=-1;spacingLeft=3;spacingRight=3;rotatable=0;labelPosition=right;points=[];portConstraint=eastwest;strokeColor=inherit;" parent="RPxi0eU1zX9Ktvan48h7-125" vertex="1">
          <mxGeometry y="60" width="360" height="18" as="geometry" />
        </mxCell>
        <mxCell id="RPxi0eU1zX9Ktvan48h7-128" value="&lt;div&gt;&lt;br&gt;&lt;/div&gt;" style="text;strokeColor=none;fillColor=#C7FFCD;align=left;verticalAlign=top;spacingLeft=4;spacingRight=4;overflow=hidden;rotatable=0;points=[[0,0.5],[1,0.5]];portConstraint=eastwest;whiteSpace=wrap;html=1;" parent="RPxi0eU1zX9Ktvan48h7-125" vertex="1">
          <mxGeometry y="78" width="360" height="12" as="geometry" />
        </mxCell>
        <mxCell id="RPxi0eU1zX9Ktvan48h7-129" value="" style="endArrow=block;endSize=16;endFill=0;html=1;rounded=0;exitX=0.498;exitY=1.004;exitDx=0;exitDy=0;entryX=0.5;entryY=0;entryDx=0;entryDy=0;fillColor=#C7FFCD;exitPerimeter=0;" parent="WIyWlLk6GJQsqaUBKTNV-1" source="RPxi0eU1zX9Ktvan48h7-124" target="RPxi0eU1zX9Ktvan48h7-125" edge="1">
          <mxGeometry width="160" relative="1" as="geometry">
            <mxPoint x="-1150" y="497.00000000000006" as="sourcePoint" />
            <mxPoint x="-1149" y="457.00000000000006" as="targetPoint" />
          </mxGeometry>
        </mxCell>
        <mxCell id="RPxi0eU1zX9Ktvan48h7-133" value="" style="endArrow=none;html=1;edgeStyle=orthogonalEdgeStyle;rounded=0;fillColor=#C7FFCD;" parent="WIyWlLk6GJQsqaUBKTNV-1" edge="1">
          <mxGeometry relative="1" as="geometry">
            <mxPoint x="-660" y="25" as="sourcePoint" />
            <mxPoint x="-620" y="25" as="targetPoint" />
            <Array as="points">
              <mxPoint x="-660" y="25" />
              <mxPoint x="-640" y="25" />
            </Array>
          </mxGeometry>
        </mxCell>
        <mxCell id="RPxi0eU1zX9Ktvan48h7-136" value="" style="endArrow=none;html=1;edgeStyle=orthogonalEdgeStyle;rounded=0;exitX=1;exitY=0.831;exitDx=0;exitDy=0;entryX=0;entryY=0.5;entryDx=0;entryDy=0;exitPerimeter=0;" parent="WIyWlLk6GJQsqaUBKTNV-1" source="RPxi0eU1zX9Ktvan48h7-5" target="RPxi0eU1zX9Ktvan48h7-69" edge="1">
          <mxGeometry relative="1" as="geometry">
            <mxPoint x="430" y="60" as="sourcePoint" />
            <mxPoint x="590" y="60" as="targetPoint" />
          </mxGeometry>
        </mxCell>
        <mxCell id="RPxi0eU1zX9Ktvan48h7-139" value="&lt;div style=&quot;&quot;&gt;&lt;span style=&quot;font-size: 24px;&quot;&gt;ViewRequestInterpreter&lt;/span&gt;&lt;br&gt;&lt;/div&gt;" style="swimlane;fontStyle=1;align=center;verticalAlign=top;childLayout=stackLayout;horizontal=1;startSize=40;horizontalStack=0;resizeParent=1;resizeParentMax=0;resizeLast=0;collapsible=1;marginBottom=0;whiteSpace=wrap;html=1;fillColor=#C7FFCD;" parent="WIyWlLk6GJQsqaUBKTNV-1" vertex="1">
          <mxGeometry x="-220" y="480.00000000000006" width="360" height="90" as="geometry">
            <mxRectangle x="-240" y="340" width="100" height="30" as="alternateBounds" />
          </mxGeometry>
        </mxCell>
        <mxCell id="RPxi0eU1zX9Ktvan48h7-140" value="" style="line;strokeWidth=1;fillColor=#C7FFCD;align=left;verticalAlign=middle;spacingTop=-1;spacingLeft=3;spacingRight=3;rotatable=0;labelPosition=right;points=[];portConstraint=eastwest;strokeColor=inherit;" parent="RPxi0eU1zX9Ktvan48h7-139" vertex="1">
          <mxGeometry y="40" width="360" height="18" as="geometry" />
        </mxCell>
        <mxCell id="RPxi0eU1zX9Ktvan48h7-141" value="&lt;div&gt;get_view_strategy(view_request)&lt;/div&gt;" style="text;strokeColor=none;fillColor=#C7FFCD;align=left;verticalAlign=top;spacingLeft=4;spacingRight=4;overflow=hidden;rotatable=0;points=[[0,0.5],[1,0.5]];portConstraint=eastwest;whiteSpace=wrap;html=1;" parent="RPxi0eU1zX9Ktvan48h7-139" vertex="1">
          <mxGeometry y="58" width="360" height="32" as="geometry" />
        </mxCell>
        <mxCell id="RPxi0eU1zX9Ktvan48h7-142" value="" style="endArrow=none;html=1;edgeStyle=orthogonalEdgeStyle;rounded=0;exitX=0.5;exitY=0;exitDx=0;exitDy=0;entryX=0.5;entryY=1;entryDx=0;entryDy=0;" parent="WIyWlLk6GJQsqaUBKTNV-1" source="RPxi0eU1zX9Ktvan48h7-139" target="RPxi0eU1zX9Ktvan48h7-12" edge="1">
          <mxGeometry relative="1" as="geometry">
            <mxPoint x="-220" y="350.00000000000006" as="sourcePoint" />
            <mxPoint x="-60" y="350.00000000000006" as="targetPoint" />
          </mxGeometry>
        </mxCell>
        <mxCell id="RPxi0eU1zX9Ktvan48h7-145" value="&lt;div style=&quot;&quot;&gt;&lt;span style=&quot;background-color: initial;&quot;&gt;&lt;font style=&quot;font-size: 24px;&quot;&gt;&amp;lt;&amp;lt;interface&amp;gt;&amp;gt;&lt;/font&gt;&lt;/span&gt;&lt;/div&gt;&lt;div style=&quot;&quot;&gt;&lt;span style=&quot;font-size: 24px;&quot;&gt;ViewStrategy&lt;/span&gt;&lt;/div&gt;" style="swimlane;fontStyle=1;align=center;verticalAlign=top;childLayout=stackLayout;horizontal=1;startSize=70;horizontalStack=0;resizeParent=1;resizeParentMax=0;resizeLast=0;collapsible=1;marginBottom=0;whiteSpace=wrap;html=1;fillColor=#C7FFCD;" parent="WIyWlLk6GJQsqaUBKTNV-1" vertex="1">
          <mxGeometry x="-620" y="270.00000000000006" width="360" height="200" as="geometry">
            <mxRectangle x="-240" y="340" width="100" height="30" as="alternateBounds" />
          </mxGeometry>
        </mxCell>
        <mxCell id="RPxi0eU1zX9Ktvan48h7-146" value="" style="line;strokeWidth=1;fillColor=#C7FFCD;align=left;verticalAlign=middle;spacingTop=-1;spacingLeft=3;spacingRight=3;rotatable=0;labelPosition=right;points=[];portConstraint=eastwest;strokeColor=inherit;" parent="RPxi0eU1zX9Ktvan48h7-145" vertex="1">
          <mxGeometry y="70" width="360" height="18" as="geometry" />
        </mxCell>
        <mxCell id="RPxi0eU1zX9Ktvan48h7-147" value="&lt;div&gt;handle_view_request(view_request)&lt;br&gt;&lt;/div&gt;&lt;div&gt;start_view()&lt;/div&gt;&lt;div&gt;stop_view()&lt;/div&gt;&lt;div&gt;update_view(update)&lt;/div&gt;&lt;div&gt;handle_view_event(event)&lt;/div&gt;&lt;div&gt;&lt;div&gt;update(event_type, data)&lt;br&gt;&lt;/div&gt;&lt;div&gt;refresh_view()&lt;/div&gt;&lt;/div&gt;" style="text;strokeColor=none;fillColor=#C7FFCD;align=left;verticalAlign=top;spacingLeft=4;spacingRight=4;overflow=hidden;rotatable=0;points=[[0,0.5],[1,0.5]];portConstraint=eastwest;whiteSpace=wrap;html=1;" parent="RPxi0eU1zX9Ktvan48h7-145" vertex="1">
          <mxGeometry y="88" width="360" height="112" as="geometry" />
        </mxCell>
        <mxCell id="RPxi0eU1zX9Ktvan48h7-148" value="" style="endArrow=none;html=1;edgeStyle=orthogonalEdgeStyle;rounded=0;exitX=0.999;exitY=0.317;exitDx=0;exitDy=0;entryX=0;entryY=0.447;entryDx=0;entryDy=0;fillColor=#C7FFCD;entryPerimeter=0;exitPerimeter=0;" parent="WIyWlLk6GJQsqaUBKTNV-1" source="RPxi0eU1zX9Ktvan48h7-145" target="RPxi0eU1zX9Ktvan48h7-13" edge="1">
          <mxGeometry relative="1" as="geometry">
            <mxPoint x="-260" y="321.00000000000006" as="sourcePoint" />
            <mxPoint x="-220" y="320.00000000000006" as="targetPoint" />
            <Array as="points">
              <mxPoint x="-230" y="321.00000000000006" />
            </Array>
          </mxGeometry>
        </mxCell>
        <mxCell id="RPxi0eU1zX9Ktvan48h7-149" value="&lt;font style=&quot;font-size: 24px;&quot;&gt;NetworkProperties&lt;/font&gt;" style="swimlane;fontStyle=1;align=center;verticalAlign=top;childLayout=stackLayout;horizontal=1;startSize=40;horizontalStack=0;resizeParent=1;resizeParentMax=0;resizeLast=0;collapsible=1;marginBottom=0;whiteSpace=wrap;html=1;fillColor=#C7FFCD;" parent="WIyWlLk6GJQsqaUBKTNV-1" vertex="1" collapsed="1">
          <mxGeometry x="-170" y="-788" width="260" height="40" as="geometry">
            <mxRectangle x="-640" y="-160" width="360" height="200" as="alternateBounds" />
          </mxGeometry>
        </mxCell>
        <mxCell id="RPxi0eU1zX9Ktvan48h7-150" value="" style="text;strokeColor=none;fillColor=#FFFDBF;align=left;verticalAlign=top;spacingLeft=4;spacingRight=4;overflow=hidden;rotatable=0;points=[[0,0.5],[1,0.5]];portConstraint=eastwest;whiteSpace=wrap;html=1;" parent="RPxi0eU1zX9Ktvan48h7-149" vertex="1">
          <mxGeometry y="26" width="360" height="84" as="geometry" />
        </mxCell>
        <mxCell id="RPxi0eU1zX9Ktvan48h7-151" value="" style="line;strokeWidth=1;fillColor=#FFFDBF;align=left;verticalAlign=middle;spacingTop=-1;spacingLeft=3;spacingRight=3;rotatable=0;labelPosition=right;points=[];portConstraint=eastwest;strokeColor=inherit;" parent="RPxi0eU1zX9Ktvan48h7-149" vertex="1">
          <mxGeometry y="110" width="360" height="18" as="geometry" />
        </mxCell>
        <mxCell id="RPxi0eU1zX9Ktvan48h7-152" value="" style="text;strokeColor=none;fillColor=#FFFDBF;align=left;verticalAlign=top;spacingLeft=4;spacingRight=4;overflow=hidden;rotatable=0;points=[[0,0.5],[1,0.5]];portConstraint=eastwest;whiteSpace=wrap;html=1;" parent="RPxi0eU1zX9Ktvan48h7-149" vertex="1">
          <mxGeometry y="128" width="360" height="72" as="geometry" />
        </mxCell>
        <mxCell id="RPxi0eU1zX9Ktvan48h7-153" value="" style="endArrow=diamondThin;endFill=0;endSize=24;html=1;rounded=0;entryX=0.5;entryY=0;entryDx=0;entryDy=0;exitX=0.5;exitY=1;exitDx=0;exitDy=0;fillColor=#C7FFCD;" parent="WIyWlLk6GJQsqaUBKTNV-1" source="RPxi0eU1zX9Ktvan48h7-149" target="RPxi0eU1zX9Ktvan48h7-28" edge="1">
          <mxGeometry width="160" relative="1" as="geometry">
            <mxPoint x="-250" y="-472" as="sourcePoint" />
            <mxPoint x="-210" y="-472" as="targetPoint" />
          </mxGeometry>
        </mxCell>
        <mxCell id="RPxi0eU1zX9Ktvan48h7-154" value="&lt;font style=&quot;font-size: 24px;&quot;&gt;NodeProperties&lt;/font&gt;" style="swimlane;fontStyle=1;align=center;verticalAlign=top;childLayout=stackLayout;horizontal=1;startSize=40;horizontalStack=0;resizeParent=1;resizeParentMax=0;resizeLast=0;collapsible=1;marginBottom=0;whiteSpace=wrap;html=1;fillColor=#C7FFCD;" parent="WIyWlLk6GJQsqaUBKTNV-1" vertex="1" collapsed="1">
          <mxGeometry x="-300" y="-1010" width="190" height="40" as="geometry">
            <mxRectangle x="-260" y="-599" width="360" height="200" as="alternateBounds" />
          </mxGeometry>
        </mxCell>
        <mxCell id="RPxi0eU1zX9Ktvan48h7-155" value="" style="text;strokeColor=none;fillColor=#FFFDBF;align=left;verticalAlign=top;spacingLeft=4;spacingRight=4;overflow=hidden;rotatable=0;points=[[0,0.5],[1,0.5]];portConstraint=eastwest;whiteSpace=wrap;html=1;" parent="RPxi0eU1zX9Ktvan48h7-154" vertex="1">
          <mxGeometry y="26" width="360" height="84" as="geometry" />
        </mxCell>
        <mxCell id="RPxi0eU1zX9Ktvan48h7-156" value="" style="line;strokeWidth=1;fillColor=#FFFDBF;align=left;verticalAlign=middle;spacingTop=-1;spacingLeft=3;spacingRight=3;rotatable=0;labelPosition=right;points=[];portConstraint=eastwest;strokeColor=inherit;" parent="RPxi0eU1zX9Ktvan48h7-154" vertex="1">
          <mxGeometry y="110" width="360" height="18" as="geometry" />
        </mxCell>
        <mxCell id="RPxi0eU1zX9Ktvan48h7-157" value="" style="text;strokeColor=none;fillColor=#FFFDBF;align=left;verticalAlign=top;spacingLeft=4;spacingRight=4;overflow=hidden;rotatable=0;points=[[0,0.5],[1,0.5]];portConstraint=eastwest;whiteSpace=wrap;html=1;" parent="RPxi0eU1zX9Ktvan48h7-154" vertex="1">
          <mxGeometry y="128" width="360" height="72" as="geometry" />
        </mxCell>
        <mxCell id="RPxi0eU1zX9Ktvan48h7-158" value="" style="endArrow=diamondThin;endFill=0;endSize=24;html=1;rounded=0;entryX=0.5;entryY=0;entryDx=0;entryDy=0;exitX=0.5;exitY=1;exitDx=0;exitDy=0;fillColor=#C7FFCD;" parent="WIyWlLk6GJQsqaUBKTNV-1" source="RPxi0eU1zX9Ktvan48h7-154" target="RPxi0eU1zX9Ktvan48h7-40" edge="1">
          <mxGeometry width="160" relative="1" as="geometry">
            <mxPoint x="-650" y="-582" as="sourcePoint" />
            <mxPoint x="-439.99999999999994" y="-730" as="targetPoint" />
          </mxGeometry>
        </mxCell>
        <mxCell id="RPxi0eU1zX9Ktvan48h7-159" value="&lt;font style=&quot;font-size: 24px;&quot;&gt;EdgeProperties&lt;/font&gt;" style="swimlane;fontStyle=1;align=center;verticalAlign=top;childLayout=stackLayout;horizontal=1;startSize=40;horizontalStack=0;resizeParent=1;resizeParentMax=0;resizeLast=0;collapsible=1;marginBottom=0;whiteSpace=wrap;html=1;fillColor=#C7FFCD;" parent="WIyWlLk6GJQsqaUBKTNV-1" vertex="1" collapsed="1">
          <mxGeometry x="20" y="-1010" width="190" height="40" as="geometry">
            <mxRectangle y="-730" width="360" height="200" as="alternateBounds" />
          </mxGeometry>
        </mxCell>
        <mxCell id="RPxi0eU1zX9Ktvan48h7-160" value="" style="text;strokeColor=none;fillColor=#FFFDBF;align=left;verticalAlign=top;spacingLeft=4;spacingRight=4;overflow=hidden;rotatable=0;points=[[0,0.5],[1,0.5]];portConstraint=eastwest;whiteSpace=wrap;html=1;" parent="RPxi0eU1zX9Ktvan48h7-159" vertex="1">
          <mxGeometry y="26" width="360" height="84" as="geometry" />
        </mxCell>
        <mxCell id="RPxi0eU1zX9Ktvan48h7-161" value="" style="line;strokeWidth=1;fillColor=#FFFDBF;align=left;verticalAlign=middle;spacingTop=-1;spacingLeft=3;spacingRight=3;rotatable=0;labelPosition=right;points=[];portConstraint=eastwest;strokeColor=inherit;" parent="RPxi0eU1zX9Ktvan48h7-159" vertex="1">
          <mxGeometry y="110" width="360" height="18" as="geometry" />
        </mxCell>
        <mxCell id="RPxi0eU1zX9Ktvan48h7-162" value="" style="text;strokeColor=none;fillColor=#FFFDBF;align=left;verticalAlign=top;spacingLeft=4;spacingRight=4;overflow=hidden;rotatable=0;points=[[0,0.5],[1,0.5]];portConstraint=eastwest;whiteSpace=wrap;html=1;" parent="RPxi0eU1zX9Ktvan48h7-159" vertex="1">
          <mxGeometry y="128" width="360" height="72" as="geometry" />
        </mxCell>
        <mxCell id="RPxi0eU1zX9Ktvan48h7-163" value="" style="endArrow=diamondThin;endFill=0;endSize=24;html=1;rounded=0;entryX=0.5;entryY=0;entryDx=0;entryDy=0;exitX=0.5;exitY=1;exitDx=0;exitDy=0;fillColor=#C7FFCD;" parent="WIyWlLk6GJQsqaUBKTNV-1" source="RPxi0eU1zX9Ktvan48h7-159" target="RPxi0eU1zX9Ktvan48h7-44" edge="1">
          <mxGeometry width="160" relative="1" as="geometry">
            <mxPoint x="-40" y="-882" as="sourcePoint" />
            <mxPoint x="170" y="-1030" as="targetPoint" />
          </mxGeometry>
        </mxCell>
        <mxCell id="RPxi0eU1zX9Ktvan48h7-167" value="2" style="endArrow=open;html=1;endSize=12;startArrow=diamondThin;startSize=14;startFill=1;edgeStyle=orthogonalEdgeStyle;align=left;verticalAlign=bottom;rounded=0;exitX=1;exitY=0.5;exitDx=0;exitDy=0;entryX=0;entryY=0.5;entryDx=0;entryDy=0;fillColor=#C7FFCD;" parent="WIyWlLk6GJQsqaUBKTNV-1" source="RPxi0eU1zX9Ktvan48h7-154" target="RPxi0eU1zX9Ktvan48h7-159" edge="1">
          <mxGeometry x="-1" y="3" relative="1" as="geometry">
            <mxPoint x="-50" y="-790" as="sourcePoint" />
            <mxPoint x="20" y="-1155" as="targetPoint" />
            <Array as="points" />
            <mxPoint as="offset" />
          </mxGeometry>
        </mxCell>
        <mxCell id="RPxi0eU1zX9Ktvan48h7-169" value="" style="endArrow=block;endFill=1;html=1;edgeStyle=orthogonalEdgeStyle;align=left;verticalAlign=top;rounded=0;entryX=0.5;entryY=0;entryDx=0;entryDy=0;exitX=0;exitY=0.5;exitDx=0;exitDy=0;" parent="WIyWlLk6GJQsqaUBKTNV-1" source="RPxi0eU1zX9Ktvan48h7-31" target="RPxi0eU1zX9Ktvan48h7-32" edge="1">
          <mxGeometry x="-0.8933" y="25" relative="1" as="geometry">
            <mxPoint x="-230" y="-240" as="sourcePoint" />
            <mxPoint x="-70" y="-240" as="targetPoint" />
            <mxPoint as="offset" />
          </mxGeometry>
        </mxCell>
        <mxCell id="RPxi0eU1zX9Ktvan48h7-170" value="1..*" style="edgeLabel;resizable=0;html=1;align=left;verticalAlign=bottom;" parent="RPxi0eU1zX9Ktvan48h7-169" connectable="0" vertex="1">
          <mxGeometry x="-1" relative="1" as="geometry">
            <mxPoint x="-20" as="offset" />
          </mxGeometry>
        </mxCell>
        <mxCell id="RPxi0eU1zX9Ktvan48h7-171" value="&lt;span style=&quot;font-size: 24px;&quot;&gt;&amp;lt;&amp;lt;interface&amp;gt;&amp;gt;&lt;/span&gt;&lt;br style=&quot;font-size: 24px;&quot;&gt;&lt;span style=&quot;font-size: 24px;&quot;&gt;Subject&lt;/span&gt;" style="swimlane;fontStyle=1;align=center;verticalAlign=top;childLayout=stackLayout;horizontal=1;startSize=70;horizontalStack=0;resizeParent=1;resizeParentMax=0;resizeLast=0;collapsible=1;marginBottom=0;whiteSpace=wrap;html=1;fillColor=#C7FFCD;" parent="WIyWlLk6GJQsqaUBKTNV-1" vertex="1">
          <mxGeometry x="-1420" y="-210" width="360" height="170" as="geometry">
            <mxRectangle x="-240" y="340" width="100" height="30" as="alternateBounds" />
          </mxGeometry>
        </mxCell>
        <mxCell id="RPxi0eU1zX9Ktvan48h7-172" value="observer: Observer" style="text;strokeColor=none;fillColor=#C7FFCD;align=left;verticalAlign=top;spacingLeft=4;spacingRight=4;overflow=hidden;rotatable=0;points=[[0,0.5],[1,0.5]];portConstraint=eastwest;whiteSpace=wrap;html=1;" parent="RPxi0eU1zX9Ktvan48h7-171" vertex="1">
          <mxGeometry y="70" width="360" height="20" as="geometry" />
        </mxCell>
        <mxCell id="RPxi0eU1zX9Ktvan48h7-173" value="" style="line;strokeWidth=1;fillColor=#C7FFCD;align=left;verticalAlign=middle;spacingTop=-1;spacingLeft=3;spacingRight=3;rotatable=0;labelPosition=right;points=[];portConstraint=eastwest;strokeColor=inherit;" parent="RPxi0eU1zX9Ktvan48h7-171" vertex="1">
          <mxGeometry y="90" width="360" height="18" as="geometry" />
        </mxCell>
        <mxCell id="RPxi0eU1zX9Ktvan48h7-174" value="add_observer()&lt;div&gt;remove_observer()&lt;/div&gt;&lt;div&gt;notify_oberver()&lt;/div&gt;" style="text;strokeColor=none;fillColor=#C7FFCD;align=left;verticalAlign=top;spacingLeft=4;spacingRight=4;overflow=hidden;rotatable=0;points=[[0,0.5],[1,0.5]];portConstraint=eastwest;whiteSpace=wrap;html=1;" parent="RPxi0eU1zX9Ktvan48h7-171" vertex="1">
          <mxGeometry y="108" width="360" height="62" as="geometry" />
        </mxCell>
        <mxCell id="RPxi0eU1zX9Ktvan48h7-175" value="&lt;font style=&quot;font-size: 24px;&quot;&gt;Observer&lt;/font&gt;" style="swimlane;fontStyle=1;align=center;verticalAlign=top;childLayout=stackLayout;horizontal=1;startSize=40;horizontalStack=0;resizeParent=1;resizeParentMax=0;resizeLast=0;collapsible=1;marginBottom=0;whiteSpace=wrap;html=1;fillColor=#C7FFCD;" parent="WIyWlLk6GJQsqaUBKTNV-1" vertex="1">
          <mxGeometry x="-1420" y="270.00000000000006" width="360" height="114" as="geometry">
            <mxRectangle x="-240" y="340" width="100" height="30" as="alternateBounds" />
          </mxGeometry>
        </mxCell>
        <mxCell id="RPxi0eU1zX9Ktvan48h7-176" value="" style="text;strokeColor=none;fillColor=#C7FFCD;align=left;verticalAlign=top;spacingLeft=4;spacingRight=4;overflow=hidden;rotatable=0;points=[[0,0.5],[1,0.5]];portConstraint=eastwest;whiteSpace=wrap;html=1;" parent="RPxi0eU1zX9Ktvan48h7-175" vertex="1">
          <mxGeometry y="40" width="360" height="14" as="geometry" />
        </mxCell>
        <mxCell id="RPxi0eU1zX9Ktvan48h7-177" value="" style="line;strokeWidth=1;fillColor=#C7FFCD;align=left;verticalAlign=middle;spacingTop=-1;spacingLeft=3;spacingRight=3;rotatable=0;labelPosition=right;points=[];portConstraint=eastwest;strokeColor=inherit;" parent="RPxi0eU1zX9Ktvan48h7-175" vertex="1">
          <mxGeometry y="54" width="360" height="18" as="geometry" />
        </mxCell>
        <mxCell id="RPxi0eU1zX9Ktvan48h7-178" value="update()" style="text;strokeColor=none;fillColor=#C7FFCD;align=left;verticalAlign=top;spacingLeft=4;spacingRight=4;overflow=hidden;rotatable=0;points=[[0,0.5],[1,0.5]];portConstraint=eastwest;whiteSpace=wrap;html=1;" parent="RPxi0eU1zX9Ktvan48h7-175" vertex="1">
          <mxGeometry y="72" width="360" height="42" as="geometry" />
        </mxCell>
        <mxCell id="RPxi0eU1zX9Ktvan48h7-179" value="" style="endArrow=block;endSize=16;endFill=0;html=1;rounded=0;exitX=0;exitY=0.75;exitDx=0;exitDy=0;entryX=1;entryY=0.5;entryDx=0;entryDy=0;" parent="WIyWlLk6GJQsqaUBKTNV-1" source="RPxi0eU1zX9Ktvan48h7-24" target="RPxi0eU1zX9Ktvan48h7-171" edge="1">
          <mxGeometry width="160" relative="1" as="geometry">
            <mxPoint x="-810" y="150" as="sourcePoint" />
            <mxPoint x="-650" y="150" as="targetPoint" />
            <mxPoint as="offset" />
          </mxGeometry>
        </mxCell>
        <mxCell id="RPxi0eU1zX9Ktvan48h7-180" value="" style="endArrow=block;endFill=1;html=1;edgeStyle=orthogonalEdgeStyle;align=left;verticalAlign=top;rounded=0;exitX=0.5;exitY=1;exitDx=0;exitDy=0;entryX=0.5;entryY=0;entryDx=0;entryDy=0;" parent="WIyWlLk6GJQsqaUBKTNV-1" source="RPxi0eU1zX9Ktvan48h7-171" target="RPxi0eU1zX9Ktvan48h7-175" edge="1">
          <mxGeometry x="-0.7419" y="20" relative="1" as="geometry">
            <mxPoint x="-1210" y="150" as="sourcePoint" />
            <mxPoint x="-1050" y="150" as="targetPoint" />
            <mxPoint as="offset" />
          </mxGeometry>
        </mxCell>
        <mxCell id="RPxi0eU1zX9Ktvan48h7-181" value="1" style="edgeLabel;resizable=0;html=1;align=left;verticalAlign=bottom;" parent="RPxi0eU1zX9Ktvan48h7-180" connectable="0" vertex="1">
          <mxGeometry x="-1" relative="1" as="geometry">
            <mxPoint x="10" y="30" as="offset" />
          </mxGeometry>
        </mxCell>
        <mxCell id="RPxi0eU1zX9Ktvan48h7-182" value="" style="endArrow=block;endSize=16;endFill=0;html=1;rounded=0;exitX=0;exitY=0.5;exitDx=0;exitDy=0;entryX=1;entryY=0.5;entryDx=0;entryDy=0;" parent="WIyWlLk6GJQsqaUBKTNV-1" source="RPxi0eU1zX9Ktvan48h7-145" target="RPxi0eU1zX9Ktvan48h7-175" edge="1">
          <mxGeometry width="160" relative="1" as="geometry">
            <mxPoint x="-210" y="-150" as="sourcePoint" />
            <mxPoint x="-1050" y="-115" as="targetPoint" />
            <mxPoint as="offset" />
          </mxGeometry>
        </mxCell>
        <mxCell id="RPxi0eU1zX9Ktvan48h7-183" value="&lt;div style=&quot;&quot;&gt;&lt;span style=&quot;font-size: 24px;&quot;&gt;No Physics&lt;/span&gt;&lt;/div&gt;" style="swimlane;fontStyle=1;align=center;verticalAlign=top;childLayout=stackLayout;horizontal=1;startSize=40;horizontalStack=0;resizeParent=1;resizeParentMax=0;resizeLast=0;collapsible=1;marginBottom=0;whiteSpace=wrap;html=1;fillColor=#C7FFCD;" parent="WIyWlLk6GJQsqaUBKTNV-1" vertex="1" collapsed="1">
          <mxGeometry x="300" y="-130" width="180" height="40" as="geometry">
            <mxRectangle x="600" y="560" width="360" height="102" as="alternateBounds" />
          </mxGeometry>
        </mxCell>
        <mxCell id="RPxi0eU1zX9Ktvan48h7-184" value="" style="line;strokeWidth=1;fillColor=#C7FFCD;align=left;verticalAlign=middle;spacingTop=-1;spacingLeft=3;spacingRight=3;rotatable=0;labelPosition=right;points=[];portConstraint=eastwest;strokeColor=inherit;" parent="RPxi0eU1zX9Ktvan48h7-183" vertex="1">
          <mxGeometry y="40" width="360" height="20" as="geometry" />
        </mxCell>
        <mxCell id="RPxi0eU1zX9Ktvan48h7-185" value="&lt;div&gt;&lt;br&gt;&lt;/div&gt;" style="text;strokeColor=none;fillColor=#C7FFCD;align=left;verticalAlign=top;spacingLeft=4;spacingRight=4;overflow=hidden;rotatable=0;points=[[0,0.5],[1,0.5]];portConstraint=eastwest;whiteSpace=wrap;html=1;" parent="RPxi0eU1zX9Ktvan48h7-183" vertex="1">
          <mxGeometry y="60" width="360" height="42" as="geometry" />
        </mxCell>
        <mxCell id="RPxi0eU1zX9Ktvan48h7-187" value="" style="endArrow=block;endSize=16;endFill=0;html=1;rounded=0;exitX=0.5;exitY=0;exitDx=0;exitDy=0;entryX=0.5;entryY=1;entryDx=0;entryDy=0;fillColor=#C7FFCD;" parent="WIyWlLk6GJQsqaUBKTNV-1" source="RPxi0eU1zX9Ktvan48h7-183" target="RPxi0eU1zX9Ktvan48h7-36" edge="1">
          <mxGeometry width="160" relative="1" as="geometry">
            <mxPoint x="720" y="120" as="sourcePoint" />
            <mxPoint x="811" y="91" as="targetPoint" />
          </mxGeometry>
        </mxCell>
      </root>
    </mxGraphModel>
  </diagram>
</mxfile>
